<?xml version="1.0" encoding="utf-8"?>
<!-- Generator: Adobe Illustrator 16.0.3, SVG Export Plug-In . SVG Version: 6.00 Build 0)  -->
<!DOCTYPE svg PUBLIC "-//W3C//DTD SVG 1.1//EN" "http://www.w3.org/Graphics/SVG/1.1/DTD/svg11.dtd">
<svg version="1.1" xmlns="http://www.w3.org/2000/svg" xmlns:xlink="http://www.w3.org/1999/xlink" x="0px" y="0px" width="820px"
	 height="312px" viewBox="0 0 820 312" enable-background="new 0 0 820 312" xml:space="preserve">
<g id="Capa_1" display="none">
	<path display="inline" d="M82.768,94.068c0.251,1.435,0.466,2.438,0.574,2.977c0.146,0.731,0.207,1.478,0.179,2.223
		c0.021,2.714-0.606,5.395-1.829,7.818c-1.037,2.233-2.809,4.044-5.021,5.128c-1.723-2.295-3.82-4.283-6.204-5.881
		c-2.521-1.673-5.229-3.045-8.069-4.088c-2.947-1.054-5.983-1.834-9.073-2.331c-3.023-0.495-6.082-0.747-9.145-0.753
		c-2.788-0.022-5.572,0.206-8.319,0.681c-2.341,0.403-4.636,1.04-6.85,1.901c-1.754,0.658-3.354,1.671-4.698,2.977
		c-1.095,1.079-1.715,2.55-1.722,4.088c0.499,2.239,1.768,4.231,3.586,5.63c2.301,2.116,4.812,3.99,7.495,5.594
		c2.941,1.829,6.24,3.586,9.826,5.379c3.586,1.793,7.172,3.586,10.758,5.092c4.303,2.044,8.033,3.909,11.153,5.666
		c2.844,1.517,5.453,3.437,7.746,5.702c2.006,2.051,3.568,4.492,4.59,7.172c0.935,3.04,1.323,6.221,1.147,9.396
		c0.03,4.138-0.699,8.247-2.152,12.121c-1.382,3.678-3.52,7.025-6.275,9.826c-2.84,2.845-6.233,5.079-9.97,6.563
		c-4.176,1.599-8.618,2.39-13.089,2.331c-5.115-0.08-10.199-0.803-15.133-2.152c-5.351-1.371-10.525-3.357-15.42-5.916
		c-4.424-2.198-8.458-5.105-11.941-8.607c-2.977-2.645-4.75-6.385-4.913-10.363c0.122-2.22,0.619-4.402,1.47-6.456
		c1.234-3.061,3.021-5.869,5.271-8.284c0.548,3.305,1.931,6.416,4.017,9.037c3.041,3.95,6.861,7.234,11.225,9.646
		c4.487,2.621,9.314,4.612,14.344,5.917c4.536,1.166,9.196,1.779,13.878,1.829c3.939,0.128,7.867-0.479,11.583-1.793
		c2.572-0.946,4.935-2.384,6.957-4.231c1.551-1.389,2.775-3.104,3.586-5.021c0.58-1.287,0.966-2.652,1.147-4.052
		c-0.151-1.867-0.98-3.615-2.331-4.913c-1.778-1.786-3.793-3.318-5.989-4.554c-2.475-1.47-5.379-2.977-8.678-4.519
		c-3.299-1.542-6.742-3.048-10.292-4.554c-5.307-2.367-9.934-4.59-13.771-6.67c-3.387-1.768-6.573-3.896-9.503-6.347
		c-2.285-1.863-4.154-4.184-5.486-6.814c-1.174-2.537-1.75-5.31-1.686-8.104c0.026-4.817,1.528-9.511,4.303-13.448
		c3.116-4.422,7.507-7.787,12.587-9.646c2.773-1.212,5.689-2.067,8.678-2.546c2.998-0.505,6.032-0.77,9.073-0.789
		c5.542,0.006,11.058,0.778,16.389,2.295C72.233,89.799,77.578,91.752,82.768,94.068z"/>
	<path display="inline" d="M92.952,131.005c-0.619-0.977-1.011-2.08-1.148-3.228c-0.327-1.4-0.508-2.83-0.538-4.268
		c2.098,0.348,4.221,0.528,6.347,0.538h5.595c1.291-2.51,2.653-5.021,4.124-7.495c1.47-2.475,2.94-4.733,4.339-6.778
		c1.212-1.799,2.517-3.535,3.909-5.2c0.834-1.039,1.798-1.967,2.869-2.761c1.088,0.029,2.17,0.173,3.228,0.43
		c1.327,0.323,2.654,0.682,4.017,1.147c1.362,0.466,2.582,0.968,3.586,1.471c0.847,0.344,1.615,0.856,2.259,1.506
		c-2.546,3.228-4.698,6.168-6.527,8.894c-1.829,2.726-3.801,5.881-5.917,9.396h5.164c1.763,0.003,3.525-0.117,5.271-0.358
		c0.439,0.451,0.781,0.988,1.004,1.578c0.254,0.627,0.388,1.296,0.395,1.973c-4.854,1.722-9.984,2.537-15.133,2.403
		c-2.116,4.088-3.98,8.14-5.63,12.157c-1.65,4.016-3.048,7.925-4.196,11.655c-1.086,3.46-1.972,6.981-2.654,10.543
		c-0.606,2.938-0.93,5.929-0.968,8.93c0,3.729,1.398,5.81,4.196,6.239c2.459-0.338,4.868-0.976,7.172-1.9
		c2.199-0.887,4.253-2.096,6.097-3.586c0.419,0.578,0.713,1.238,0.861,1.937c-0.735,0.988-1.604,1.869-2.582,2.618
		c-1.283,1.066-2.624,2.06-4.017,2.977c-1.344,0.914-2.745,1.741-4.196,2.475c-0.954,0.521-1.982,0.896-3.048,1.111
		c-2.176-0.018-4.329-0.443-6.347-1.256c-2.05-0.818-3.99-1.891-5.774-3.191c-1.644-1.17-3.075-2.613-4.231-4.268
		c-1.03-1.326-1.608-2.947-1.649-4.625c0.043-2.578,0.319-5.146,0.825-7.675c0.538-3.12,1.327-6.455,2.331-10.113
		c1.004-3.658,2.223-7.459,3.586-11.44s2.833-7.925,4.447-11.834H92.952z"/>
	<path display="inline" d="M173.926,128.351c1.006,0.022,2.005,0.167,2.977,0.43c1.074,0.284,2.118,0.668,3.12,1.147
		c0.829,0.403,1.61,0.896,2.331,1.471c0.646,0.502,0.968,0.968,0.968,1.398c-1.685,3.586-3.263,7.172-4.698,10.758
		c-1.434,3.586-2.654,7.172-3.586,10.364c-0.945,3.039-1.723,6.128-2.331,9.252c-0.5,2.469-0.777,4.977-0.825,7.495
		c-0.052,1.987,0.202,3.972,0.753,5.882c0.382,1.409,1.295,2.617,2.546,3.371c-1.215,0.762-2.548,1.32-3.945,1.648
		c-1.401,0.4-2.847,0.617-4.303,0.646c-4.59,0-6.85-3.12-6.85-9.396c0.46-6.844,2.111-13.555,4.877-19.831
		c-1.655,3.738-3.61,7.335-5.845,10.758c-2.021,3.166-4.261,6.186-6.706,9.037c-2.083,2.527-4.468,4.792-7.101,6.742
		c-1.91,1.426-4.096,2.439-6.419,2.977c-3.117,0.008-6.006-1.627-7.603-4.304c-2.055-3.202-3.081-6.956-2.941-10.759
		c0.077-5.154,1.11-10.249,3.048-15.025c1.993-5.192,4.619-10.118,7.818-14.667c2.914-4.207,6.388-7.995,10.328-11.26
		c2.947-2.723,6.751-4.334,10.758-4.554c1.031,0.359,2,0.88,2.869,1.542c1.092,0.793,2.112,1.682,3.048,2.654
		c0.919,0.948,1.748,1.981,2.474,3.084c0.568,0.819,0.958,1.747,1.148,2.725c-3.81,0.604-7.402,2.172-10.436,4.555
		c-3.71,2.894-7.005,6.285-9.791,10.077c-2.897,3.886-5.306,8.114-7.172,12.588c-1.75,3.959-2.7,8.224-2.797,12.551
		c-0.174,1.308,0.566,2.565,1.793,3.049c3.404-1.201,6.366-3.4,8.499-6.313c4.381-5.342,8.293-11.053,11.691-17.069l2.833-5.057
		c1.076-1.865,2.152-3.837,3.263-5.845l3.228-6.168C172.133,132.296,172.994,130.288,173.926,128.351z"/>
	<path display="inline" d="M186.765,177.086c0.395-2.438,1.147-5.666,2.223-9.682c1.076-4.018,2.295-8.32,3.586-12.839
		s2.977-9.073,4.554-13.663c1.578-4.59,3.192-8.678,4.698-12.3c0.864-2.109,1.846-4.168,2.941-6.168
		c0.758-1.322,1.7-2.529,2.797-3.586c1.22,0.192,2.42,0.492,3.586,0.897c1.231,0.411,2.43,0.914,3.586,1.506
		c1.094,0.555,2.16,1.166,3.191,1.829c0.797,0.523,1.521,1.15,2.152,1.865c-2.383,2.823-4.406,5.931-6.025,9.252
		c-1.965,4.225-3.619,8.588-4.949,13.054c4.542-4.064,8.583-7.961,12.121-11.691c3.623-3.861,6.91-8.024,9.826-12.444
		c0.799-0.476,1.727-0.689,2.654-0.609c1.22-0.028,2.436,0.166,3.586,0.574c0.927,0.238,1.74,0.797,2.295,1.578
		c-1.496,3.842-2.274,7.926-2.295,12.049c-0.186,2.893,0.383,5.784,1.649,8.392c-0.386,1.068-0.97,2.053-1.721,2.905
		c-1.086,1.444-2.285,2.799-3.586,4.052c-2.336-1.189-4.419-2.821-6.132-4.805c-1.729-1.991-3.067-4.291-3.945-6.778
		c-3.577,2.476-6.969,5.208-10.148,8.176c-2.779,2.629-5.191,5.621-7.172,8.894c-2.113,3.539-3.821,7.304-5.092,11.225
		c-1.363,4.231-2.726,9.288-3.98,15.134c-0.938-0.166-1.854-0.442-2.726-0.825c-1.107-0.489-2.174-1.065-3.192-1.722
		c-1-0.641-1.947-1.361-2.833-2.151C187.709,178.633,187.145,177.908,186.765,177.086z"/>
	<path display="inline" d="M248.446,131.005c-0.604-0.984-0.994-2.083-1.147-3.228c-0.3-1.404-0.468-2.833-0.502-4.268
		c2.098,0.348,4.221,0.528,6.348,0.538h5.594c1.255-2.51,2.654-5.021,4.124-7.495s2.905-4.733,4.303-6.778
		c1.224-1.8,2.541-3.536,3.945-5.2c0.825-1.048,1.791-1.977,2.869-2.761c1.087,0.033,2.169,0.177,3.227,0.43
		c1.327,0.323,2.654,0.682,4.017,1.147c1.363,0.466,2.582,0.968,3.586,1.471c0.861,0.336,1.643,0.849,2.295,1.506
		c-2.546,3.228-4.734,6.168-6.527,8.894s-3.801,5.881-5.917,9.396h5.057c1.763,0.006,3.525-0.114,5.271-0.358
		c0.462,0.44,0.818,0.979,1.04,1.578c0.243,0.629,0.364,1.298,0.358,1.973c-4.841,1.725-9.96,2.54-15.098,2.403
		c-2.116,4.088-4.016,8.14-5.666,12.157c-1.649,4.016-2.905,7.925-3.837,11.655c-1.081,3.465-1.978,6.984-2.689,10.543
		c-0.577,2.942-0.889,5.931-0.933,8.93c0,3.729,1.398,5.81,4.196,6.239c2.46-0.334,4.869-0.973,7.172-1.9
		c2.206-0.87,4.263-2.08,6.096-3.586c0.428,0.578,0.733,1.236,0.896,1.937c-0.74,0.996-1.622,1.878-2.618,2.618
		c-1.27,1.066-2.599,2.06-3.981,2.977c-1.343,0.914-2.745,1.741-4.195,2.475c-0.957,0.518-1.983,0.892-3.048,1.111
		c-2.176-0.018-4.329-0.443-6.348-1.256c-2.054-0.811-3.994-1.883-5.773-3.191c-1.644-1.17-3.075-2.613-4.231-4.268
		c-1.041-1.322-1.632-2.943-1.686-4.625c0.062-2.577,0.338-5.145,0.825-7.675c0.574-3.12,1.363-6.455,2.367-10.113
		c1.004-3.658,2.188-7.459,3.586-11.44c1.398-3.98,2.833-7.925,4.447-11.834H248.446z"/>
	<path display="inline" d="M403.832,109.667c0.074,5.021-1.431,9.938-4.304,14.058c-3.087,4.275-7.126,7.773-11.798,10.22
		c3.107,2.093,5.726,4.833,7.674,8.033c1.904,3.172,2.897,6.808,2.869,10.507c-0.084,4.804-1.513,9.487-4.124,13.521
		c-2.907,4.58-6.64,8.581-11.009,11.798c-4.76,3.528-10.017,6.333-15.6,8.319c-5.746,2.096-11.815,3.164-17.931,3.156
		c-5.986,0.17-11.929-1.059-17.357-3.586c-4.817-2.395-8.84-6.131-11.583-10.759c0.813-2.534,1.925-5.69,3.335-9.468
		c1.399-3.586,2.941-7.746,4.662-11.905c1.721-4.16,3.586-8.355,5.128-12.516c1.542-4.16,3.371-7.89,4.877-11.188
		c3.228-7.172,6.096-13.161,8.643-17.931c2.104-3.94,4.502-7.716,7.172-11.296c-4.342,1.323-8.584,2.953-12.695,4.877
		c-3.043,1.331-5.871,3.107-8.391,5.271c-0.89-0.627-1.677-1.389-2.331-2.259c-0.843-1.069-1.609-2.195-2.295-3.371
		c-0.712-1.197-1.313-2.458-1.793-3.765c-0.415-1.097-0.692-2.242-0.825-3.407c2.685-1.774,5.559-3.242,8.571-4.375
		c3.748-1.466,7.594-2.664,11.511-3.586c4.197-1.04,8.447-1.854,12.731-2.438c4.148-0.559,8.33-0.847,12.516-0.861
		c8.399-0.483,16.743,1.647,23.883,6.096C400.898,96.604,404.094,102.968,403.832,109.667z M355.491,140.078
		c-1.708-0.885-3.22-2.104-4.447-3.586c-1.973,4.303-3.801,8.535-5.523,12.695c-1.721,4.16-3.299,7.997-4.662,11.548
		c-1.363,3.549-2.438,6.67-3.299,9.287c-0.658,1.922-1.126,3.904-1.398,5.918c1.331,0.731,2.772,1.24,4.268,1.506
		c2.031,0.395,4.099,0.574,6.168,0.537c5.59,0.019,11.15-0.804,16.496-2.438c4.943-1.514,9.616-3.801,13.842-6.778
		c3.739-2.525,6.964-5.738,9.503-9.468c2.291-3.271,3.541-7.159,3.586-11.152c0.29-5.112-2.546-9.891-7.172-12.085
		c-7.105,2.819-14.698,4.209-22.341,4.088h-2.726C357.021,140.19,356.253,140.166,355.491,140.078z M380.128,95.969
		c-1.881,0.006-3.761,0.114-5.63,0.322c-2.008,0.215-4.088,0.538-6.276,0.968c0.325,0.318,0.603,0.68,0.825,1.076
		c0,0.358,0.394,0.753,0.574,1.183c-1.032,1.417-1.967,2.903-2.797,4.447c-1.112,1.973-2.331,4.232-3.586,6.814
		c-1.255,2.582-2.761,5.415-4.268,8.571s-2.977,6.347-4.483,9.646c1.736-0.395,3.498-0.67,5.272-0.825
		c2.037-0.214,4.084-0.322,6.132-0.323c1.112,0,2.188,0,3.264,0s2.08,0.215,3.084,0.395c3.765-0.601,7.455-1.599,11.009-2.977
		c2.988-1.177,5.818-2.719,8.427-4.59c2.132-1.527,3.937-3.466,5.308-5.702c1.252-2.012,1.911-4.336,1.9-6.706
		c0.181-3.715-1.656-7.238-4.805-9.216C389.809,96.736,384.975,95.668,380.128,95.969z"/>
	<path display="inline" d="M421.476,184.079c-4.575-0.381-8.773-2.688-11.547-6.347c-3.021-4.155-4.539-9.214-4.303-14.346
		c0.023-3.565,0.53-7.112,1.506-10.542c1.041-3.737,2.497-7.345,4.34-10.758c1.869-3.452,4.079-6.708,6.598-9.718
		c2.422-2.941,5.192-5.579,8.248-7.854c3.687-3.104,8.279-4.928,13.09-5.2c3.419,2.235,6.18,5.343,7.997,9.001h1.147h1.111
		c4.519,0,6.742,3.98,6.742,11.941c0.036,5.172-0.851,10.309-2.618,15.169c-1.656,4.705-4.08,9.103-7.172,13.017
		c-3.089,3.896-6.825,7.232-11.045,9.862C431.236,181.023,426.47,182.977,421.476,184.079z M427.967,144.094
		c-1.495,2.021-2.849,4.141-4.053,6.347c-1.252,2.231-2.354,4.544-3.299,6.922c-0.886,2.178-1.605,4.419-2.152,6.705
		c-0.496,1.898-0.761,3.849-0.789,5.811c-0.001,1.982,0.352,3.949,1.041,5.809c0.645,1.865,1.434,2.941,2.259,3.191
		c3.787-0.834,7.355-2.459,10.472-4.77c3.243-2.391,6.046-5.327,8.283-8.678c2.385-3.658,4.221-7.645,5.451-11.834
		c1.332-4.579,1.996-9.325,1.973-14.093c0.029-1.742-0.103-3.482-0.395-5.2c-0.221-1.166-0.646-2.282-1.255-3.299
		c-3.668,1.118-7.063,2.986-9.97,5.487C432.743,138.745,430.206,141.293,427.967,144.094z"/>
	<path display="inline" d="M477.49,184.079c-4.581-0.362-8.785-2.675-11.547-6.347c-3.05-4.143-4.582-9.207-4.339-14.346
		c0.017-3.568,0.536-7.118,1.542-10.542c1.012-3.741,2.456-7.351,4.303-10.758c1.869-3.452,4.08-6.708,6.599-9.718
		c2.431-2.933,5.199-5.569,8.248-7.854c3.688-3.099,8.279-4.923,13.089-5.2c3.428,2.226,6.19,5.336,7.997,9.001h1.147h1.148
		c4.482,0,6.706,3.98,6.706,11.941c0.03,5.168-0.844,10.302-2.582,15.169c-1.672,4.699-4.095,9.094-7.173,13.017
		c-3.089,3.896-6.825,7.232-11.045,9.862C487.254,181.027,482.485,182.98,477.49,184.079z M484.125,144.094
		c-1.494,2.021-2.849,4.141-4.053,6.347c-1.237,2.239-2.339,4.55-3.299,6.922c-0.886,2.178-1.604,4.419-2.151,6.705
		c-0.479,1.901-0.743,3.85-0.789,5.811c-0.002,1.982,0.351,3.949,1.04,5.809c0.681,1.865,1.434,2.941,2.295,3.191
		c3.782-0.849,7.348-2.473,10.472-4.77c3.223-2.401,6.013-5.336,8.248-8.678c2.398-3.65,4.235-7.639,5.45-11.834
		c1.35-4.575,2.014-9.324,1.973-14.093c0.03-1.742-0.103-3.482-0.395-5.2c-0.221-1.166-0.646-2.282-1.255-3.299
		c-3.731,1.095-7.189,2.964-10.148,5.487C488.794,138.763,486.317,141.311,484.125,144.094z"/>
	<path display="inline" d="M524.72,131.005c-0.619-0.977-1.011-2.08-1.147-3.228c-0.318-1.401-0.486-2.831-0.502-4.268
		c2.098,0.351,4.221,0.531,6.347,0.538h5.559c1.291-2.51,2.654-5.021,4.124-7.495c1.471-2.475,2.941-4.733,4.34-6.778
		c1.212-1.809,2.529-3.545,3.944-5.2c0.814-1.045,1.768-1.974,2.833-2.761c1.1,0.031,2.193,0.175,3.264,0.43
		c1.291,0.323,2.618,0.682,3.98,1.147c1.362,0.466,2.582,0.968,3.586,1.471c0.852,0.335,1.622,0.849,2.26,1.506
		c-2.511,3.228-4.698,6.168-6.527,8.894s-3.801,5.881-5.881,9.396h5.128c1.764,0.003,3.525-0.117,5.271-0.358
		c0.451,0.442,0.795,0.982,1.004,1.578c0.255,0.627,0.389,1.296,0.395,1.973c-4.854,1.725-9.983,2.54-15.133,2.403
		c-2.116,4.088-3.98,8.14-5.631,12.157c-1.649,4.016-3.048,7.925-4.195,11.655c-1.086,3.46-1.973,6.981-2.654,10.543
		c-0.605,2.938-0.93,5.929-0.968,8.93c0,3.729,1.398,5.81,4.195,6.239c2.46-0.338,4.868-0.976,7.173-1.9
		c2.202-0.879,4.258-2.088,6.096-3.586c0.413,0.586,0.717,1.242,0.896,1.937c-0.759,0.979-1.639,1.858-2.617,2.618
		c-1.276,1.074-2.617,2.068-4.017,2.977c-1.336,0.906-2.726,1.732-4.16,2.475c-0.956,0.518-1.983,0.892-3.048,1.111
		c-2.176-0.018-4.329-0.443-6.348-1.256c-2.054-0.811-3.994-1.883-5.773-3.191c-1.653-1.171-3.097-2.613-4.268-4.268
		c-1.03-1.326-1.608-2.947-1.649-4.625c0.063-2.577,0.338-5.145,0.824-7.675c0.538-3.12,1.327-6.455,2.331-10.113
		s2.224-7.459,3.586-11.44c1.363-3.98,2.833-7.925,4.411-11.834H524.72z"/>
	<path display="inline" d="M605.694,128.925c-0.094,1.698-0.37,3.382-0.825,5.021c-0.43,1.61-0.993,3.182-1.686,4.698
		c-0.574,1.283-1.31,2.488-2.188,3.586c-0.473,0.764-1.262,1.276-2.151,1.398c-0.933,0-1.471-0.717-1.649-1.901
		c0.043-0.42,0.151-0.832,0.322-1.219c0.215-0.538,0.431-1.147,0.682-1.829c0.251-0.682,0.502-1.363,0.717-2.044
		c0.196-0.566,0.305-1.158,0.323-1.757c0.026-1.063-0.26-2.111-0.825-3.013c-0.49-0.748-1.329-1.195-2.224-1.183
		c-3.406,0-5.988,2.116-7.746,6.312c-2.059,5.966-2.96,12.271-2.653,18.576c-0.067,0.5-0.067,1.006,0,1.506h8.894
		c0.056,0.332,0.056,0.672,0,1.004c0.074,0.596-0.108,1.195-0.502,1.649l-4.626,1.075c-0.892,0.213-1.766,0.488-2.618,0.826
		c-0.439,0.148-0.817,0.438-1.076,0.824c-0.125,0.381-0.186,0.781-0.179,1.184c0,0.682,0,1.362,0,2.044c0,0.681,0,1.506,0,2.511
		c0.296,6.214-1.766,12.311-5.773,17.069c-4.185,4.481-9.943,7.169-16.066,7.495c-1.245-0.119-2.46-0.459-3.586-1.004
		c-1.279-0.626-2.482-1.396-3.586-2.295c-1.126-0.904-2.127-1.953-2.977-3.121c-0.81-1.076-1.418-2.291-1.793-3.586
		c-0.007-3.208,0.69-6.379,2.044-9.287c1.342-2.914,3.215-5.554,5.522-7.782c2.401-2.314,5.194-4.185,8.248-5.522
		c3.269-1.422,6.8-2.143,10.364-2.116c0.002-2.097-0.215-4.188-0.646-6.24c-0.431-2.044-0.86-4.017-1.327-5.917
		c-0.466-1.901-0.933-3.801-1.326-5.63c-0.425-1.774-0.642-3.591-0.646-5.415c0.01-2.341,0.485-4.657,1.398-6.813
		c0.89-2.241,2.097-4.343,3.586-6.24c1.499-1.907,3.29-3.565,5.308-4.913c1.927-1.312,4.078-2.26,6.347-2.797
		c1.322,0.516,2.537,1.269,3.587,2.224c1.62,1.284,3.165,2.661,4.626,4.124c1.458,1.444,2.813,2.99,4.052,4.626
		C604.179,126.149,605.082,127.467,605.694,128.925z M563.809,186.697c2.107-0.872,4.058-2.084,5.773-3.586
		c3.636-3.238,6.388-7.348,7.997-11.941c0.794-2.16,1.206-4.441,1.219-6.742c-2.012,0.38-3.92,1.188-5.594,2.366
		c-4.098,2.686-7.571,6.22-10.185,10.364c-1.042,1.507-1.661,3.266-1.793,5.092C561.277,184.074,562.249,185.749,563.809,186.697z"
		/>
	<path display="inline" d="M613.225,131.005c-0.618-0.977-1.011-2.08-1.147-3.228c-0.317-1.401-0.486-2.831-0.502-4.268
		c2.098,0.351,4.221,0.531,6.348,0.538h5.594c1.256-2.51,2.618-5.021,4.124-7.495c1.507-2.475,2.905-4.733,4.304-6.778
		c1.212-1.809,2.529-3.545,3.944-5.2c0.815-1.045,1.769-1.974,2.833-2.761c1.1,0.031,2.193,0.175,3.264,0.43
		c1.291,0.323,2.618,0.682,3.98,1.147c1.363,0.466,2.582,0.968,3.586,1.471c0.853,0.335,1.623,0.849,2.26,1.506
		c-2.511,3.228-4.698,6.168-6.527,8.894c-1.828,2.726-3.765,5.881-5.881,9.396h5.128c1.764,0.003,3.525-0.117,5.271-0.358
		c0.451,0.442,0.795,0.982,1.005,1.578c0.254,0.627,0.388,1.296,0.395,1.973c-4.843,1.722-9.961,2.536-15.098,2.403
		c-2.152,4.088-4.017,8.14-5.666,12.157c-1.65,4.016-3.049,7.925-4.196,11.655c-1.086,3.46-1.972,6.981-2.653,10.543
		c-0.605,2.938-0.93,5.929-0.969,8.93c0,3.729,1.398,5.81,4.196,6.239c2.459-0.338,4.868-0.976,7.172-1.9
		c2.202-0.879,4.258-2.088,6.097-3.586c0.413,0.586,0.717,1.242,0.896,1.937c-0.76,0.979-1.64,1.858-2.618,2.618
		c-1.275,1.074-2.617,2.068-4.017,2.977c-1.336,0.906-2.726,1.732-4.159,2.475c-0.957,0.518-1.983,0.892-3.049,1.111
		c-2.176-0.018-4.329-0.443-6.348-1.256c-2.054-0.811-3.994-1.883-5.773-3.191c-1.653-1.171-3.096-2.613-4.268-4.268
		c-1.03-1.326-1.608-2.947-1.649-4.625c0.063-2.577,0.338-5.145,0.825-7.675c0.537-3.12,1.326-6.455,2.331-10.113
		c1.004-3.658,2.223-7.459,3.586-11.44c1.362-3.98,2.833-7.925,4.41-11.834H613.225z"/>
	<path display="inline" d="M647.473,177.086c0.43-2.438,1.147-5.666,2.223-9.682c1.076-4.018,2.296-8.32,3.587-12.839
		c1.29-4.519,2.976-9.073,4.59-13.663c1.613-4.59,3.155-8.678,4.697-12.3c0.854-2.108,1.824-4.167,2.905-6.168
		c0.78-1.307,1.72-2.511,2.797-3.586c1.219,0.198,2.418,0.498,3.586,0.897c1.23,0.415,2.429,0.918,3.587,1.506
		c1.098,0.547,2.164,1.158,3.191,1.829c0.797,0.523,1.52,1.15,2.151,1.865c-2.383,2.823-4.406,5.931-6.024,9.252
		c-1.937,4.237-3.59,8.598-4.949,13.054c4.591-4.052,8.606-7.961,12.121-11.691c3.634-3.861,6.934-8.024,9.862-12.444
		c0.797-0.48,1.727-0.694,2.653-0.609c1.16-0.011,2.313,0.184,3.407,0.574c0.927,0.238,1.74,0.797,2.295,1.578
		c-1.479,3.847-2.257,7.928-2.295,12.049c-0.177,2.896,0.404,5.788,1.686,8.392c-0.418,1.053-0.999,2.033-1.722,2.905
		c-1.087,1.443-2.286,2.798-3.586,4.052c-4.682-2.489-8.254-6.65-10.006-11.655c-3.543,2.527-6.898,5.308-10.041,8.32
		c-2.758,2.648-5.168,5.637-7.172,8.893c-2.121,3.515-3.841,7.256-5.128,11.153c-1.398,4.231-2.726,9.288-4.017,15.134
		c-0.938-0.17-1.852-0.447-2.726-0.825c-2.191-0.972-4.232-2.251-6.061-3.802C648.386,178.68,647.833,177.931,647.473,177.086z"/>
	<path display="inline" d="M745.48,128.351c1.006,0.022,2.006,0.167,2.977,0.43c1.074,0.284,2.118,0.668,3.12,1.147
		c0.829,0.403,1.61,0.896,2.331,1.471c0.646,0.502,0.968,0.968,0.968,1.398c-1.686,3.586-3.263,7.172-4.697,10.758
		s-2.654,7.172-3.586,10.364c-0.945,3.039-1.724,6.128-2.331,9.252c-0.519,2.466-0.795,4.977-0.825,7.495
		c-0.053,1.987,0.202,3.972,0.753,5.882c0.383,1.409,1.295,2.617,2.546,3.371c-1.215,0.762-2.548,1.32-3.944,1.648
		c-1.4,0.4-2.847,0.617-4.304,0.646c-4.59,0-6.849-3.12-6.849-9.396c0.459-6.824,2.085-13.52,4.805-19.795
		c-1.655,3.738-3.609,7.336-5.845,10.758c-2.021,3.166-4.262,6.187-6.706,9.037c-2.063,2.512-4.424,4.764-7.029,6.707
		c-1.91,1.426-4.096,2.439-6.419,2.977c-3.116,0.008-6.006-1.627-7.603-4.304c-2.055-3.202-3.081-6.956-2.94-10.759
		c0.076-5.154,1.109-10.249,3.048-15.025c1.993-5.192,4.619-10.118,7.817-14.667c2.903-4.215,6.38-8.004,10.328-11.26
		c2.947-2.723,6.752-4.334,10.759-4.554c1.031,0.359,2,0.88,2.869,1.542c1.092,0.793,2.111,1.682,3.048,2.654
		c0.919,0.948,1.748,1.981,2.475,3.084c0.567,0.819,0.958,1.747,1.147,2.725c-3.81,0.604-7.402,2.172-10.436,4.555
		c-3.71,2.894-7.005,6.285-9.79,10.077c-2.897,3.886-5.307,8.114-7.173,12.588c-1.749,3.959-2.699,8.224-2.797,12.551
		c-0.174,1.308,0.565,2.565,1.793,3.049c3.404-1.201,6.366-3.4,8.499-6.313c4.382-5.342,8.293-11.053,11.691-17.069l2.833-5.057
		c1.075-1.865,2.151-3.837,3.263-5.845l3.228-6.168C743.544,132.296,744.548,130.288,745.48,128.351z"/>
	<path display="inline" d="M752.079,221.662c-1.184-0.323-1.865-1.614-2.044-3.802c-0.351-1.29-0.579-2.611-0.682-3.944
		c0-1.506-0.18-3.264-0.18-5.2c0.083-2.411,0.371-4.811,0.861-7.173c0.609-3.084,1.435-6.563,2.51-10.471
		c1.076-3.909,2.331-8.104,3.873-12.623s3.192-9.109,5.057-13.771c2.295-5.845,4.268-10.758,5.989-15.168
		c1.721-4.411,3.084-7.997,4.231-11.117c1.147-3.12,2.08-5.702,2.797-7.746c0.717-2.044,1.291-3.586,1.722-5.2
		c0.426-1.226,0.93-2.423,1.506-3.586c0.713-1.499,1.503-2.959,2.367-4.375c0.86-1.471,1.793-2.869,2.725-4.196
		c0.736-1.083,1.59-2.082,2.547-2.977c2.872,0.404,5.68,1.175,8.355,2.295c1.871,0.591,3.545,1.682,4.841,3.156
		c-1.546,1.559-2.905,3.292-4.052,5.164c-1.615,2.454-3.1,4.992-4.447,7.603c-1.459,2.751-2.775,5.576-3.944,8.463
		c-1.051,2.473-1.937,5.013-2.654,7.603c0.977-1.649,2.08-3.22,3.3-4.698c1.326-1.686,3.586-4.017,6.204-6.993
		c2.65-2.8,5.609-5.29,8.821-7.423c2.114-1.492,4.593-2.384,7.173-2.582c2.88-0.133,5.705,0.813,7.925,2.653
		c2.041,1.68,3.191,4.208,3.12,6.85c-0.007,6.164-1.036,12.284-3.048,18.11c-1.967,5.854-4.927,11.325-8.751,16.173
		c-1.472,1.85-3.117,3.555-4.912,5.093c-1.903,1.662-3.942,3.162-6.097,4.482c-1.954,1.252-4.033,2.297-6.204,3.119
		c-1.736,0.696-3.581,1.084-5.451,1.148c-1.4,0.033-2.784-0.301-4.016-0.969c-1.024-0.482-1.849-1.307-2.331-2.331
		c3.607-2.211,6.86-4.956,9.646-8.14c3.294-3.687,6.202-7.699,8.678-11.979c2.744-4.681,5.084-9.588,6.993-14.667
		c1.959-5.193,3.471-10.543,4.519-15.994c-3.064,1.576-5.981,3.424-8.714,5.523c-2.91,2.271-5.524,4.897-7.782,7.818
		c-3.048,3.586-5.451,6.706-7.172,9.001c-1.722,2.295-3.228,4.231-4.375,5.845c-1.038,1.426-1.973,2.923-2.798,4.483
		c-0.717,1.398-1.506,3.12-2.331,5.163c-1.183,2.69-2.581,6.276-4.123,10.759c-1.543,4.483-3.192,9.396-4.842,14.919
		c-1.649,5.521-3.299,11.367-4.949,17.571c-1.649,6.204-3.227,12.444-4.77,18.612c-1.073-0.273-1.96-1.028-2.402-2.045
		c-0.682-0.752-1.184-1.291-1.471-1.648C752.965,222.089,752.546,221.817,752.079,221.662z"/>
</g>
<g id="Capa_2">
	<g>
		<path fill="#FED136" d="M60.285,101.895c-4.884,3.153-9.569,6.46-14.058,9.923c-4.489,3.466-8.782,7.169-12.876,11.104
			c-3.308,3.153-6.184,6.697-8.624,10.632c-2.444,3.939-4.216,8.192-5.316,12.758c-1.104,4.726-1.063,9.215,0.118,13.467
			c1.181,4.253,3.581,8.114,7.206,11.577c0.314,0.159,0.628,0.396,0.945,0.709c0.786,0.79,0.627,1.34-0.473,1.654
			c-0.79,0.158-1.813-0.078-3.071-0.709c-4.726-1.731-8.351-4.566-10.869-8.506c-6.774-9.923-7.956-20.238-3.544-30.951
			c3.463-7.875,8.819-14.649,16.066-20.319c2.99-2.204,6.062-4.371,9.214-6.497c3.149-2.126,6.298-4.212,9.451-6.261
			c2.677-1.731,5.353-3.385,8.033-4.962c2.677-1.572,5.353-3.227,8.033-4.961c2.204-1.1,3.622-2.913,4.253-5.434
			c0.786-2.835,1.809-5.552,3.071-8.151c1.259-2.599,2.835-5.08,4.726-7.442c1.89-2.677,3.78-4.29,5.67-4.844
			c1.89-0.55,4.331-0.273,7.324,0.827c1.731,0.472,3.227,1.262,4.489,2.363c2.835,2.049,3.385,4.57,1.654,7.561
			c-1.104,2.208-2.285,3.939-3.544,5.198c-1.263,1.576-2.285,3.308-3.072,5.198c-1.735,5.516-3.071,11.105-4.016,16.775
			c-0.945,5.67-1.577,11.341-1.89,17.011c-0.318,4.57-0.354,9.096-0.118,13.585c0.236,4.489,0.59,9.019,1.063,13.585
			c0.627,5.043,1.141,10.123,1.536,15.24c0.392,5.12,0.51,10.2,0.354,15.239c0,4.411-0.473,8.664-1.417,12.758
			c-0.945,4.099-2.68,8.033-5.198,11.813c-0.159,0.159-0.236,0.354-0.236,0.591s-0.159,0.591-0.473,1.063
			c5.039-0.155,9.805-0.786,14.294-1.891c4.489-1.1,8.543-3.544,12.168-7.324c1.259-1.417,2.44-3.385,3.544-5.906
			c0.628-1.731,1.336-1.731,2.126,0c0.787,1.735,1.809,3.152,3.072,4.253c0.473,0.473,0.708,1.026,0.708,1.653
			c0.155,1.735,0.273,3.426,0.354,5.08c0.078,1.654-0.118,3.349-0.59,5.08c-0.631,1.734-1.536,3.23-2.717,4.489
			c-1.181,1.262-2.562,2.362-4.135,3.308c-2.835,1.734-5.789,3.034-8.86,3.898c-3.072,0.867-6.184,1.458-9.333,1.771
			c-3.939,0.473-7.837,0.632-11.695,0.473c-3.861-0.155-7.76-0.392-11.695-0.709c-1.735-0.154-3.507-0.313-5.316-0.473
			c-1.813-0.154-3.584-0.313-5.316-0.472c-2.208-0.155-4.452-0.196-6.734-0.118c-2.285,0.081-4.53,0.436-6.733,1.063
			c-1.735,0.317-3.467,0.554-5.198,0.709c-1.735,0.159-3.466-0.077-5.198-0.709c-4.57-1.417-5.751-4.253-3.544-8.505
			c1.259-2.677,2.953-4.607,5.08-5.789s4.526-2.086,7.207-2.717c0.945-0.155,1.927-0.273,2.953-0.354
			c1.022-0.078,2.008-0.118,2.954-0.118c1.89,0,3.149-0.786,3.78-2.363c1.1-2.362,2.126-4.725,3.071-7.088
			c0.945-2.362,1.731-4.803,2.363-7.324c1.259-5.512,2.281-11.104,3.071-16.775c0.787-5.67,1.336-11.34,1.654-17.011
			c0.473-7.561,0.982-15.003,1.536-22.328c0.55-7.324,1.454-14.767,2.717-22.328C60.599,103.866,60.599,102.84,60.285,101.895z"/>
		<path fill="#FED136" d="M118.405,176.556c0-9.451,1.89-18.665,5.671-27.644c1.572-3.463,3.344-6.734,5.316-9.805
			c1.968-3.071,4.526-5.789,7.679-8.151c8.033-6.143,17.011-7.797,26.935-4.961c5.353,1.576,9.015,4.334,10.986,8.269
			c1.968,3.939,2.717,7.956,2.245,12.05c-1.417,9.923-5.515,18.51-12.286,25.753c-5.988,6.143-13.231,9.215-21.737,9.215
			c-2.208,0.158-3.467,0.354-3.78,0.591c-0.318,0.235-0.318,1.458,0,3.662c0.472,3.308,1.1,6.538,1.89,9.687
			c0.786,3.152,2.045,6.144,3.78,8.979c1.1,1.89,2.518,3.861,4.253,5.906c1.89,1.891,3.78,2.363,5.67,1.418
			c1.731-0.473,3.308-1.022,4.725-1.654c1.418-0.627,2.754-1.495,4.017-2.599c2.204-1.731,4.212-3.581,6.025-5.553
			c1.809-1.967,3.503-4.134,5.08-6.497c3.621-5.67,6.852-11.496,9.687-17.483c2.835-5.984,5.198-12.286,7.088-18.902
			c0.314-0.627,0.55-1.181,0.709-1.653c0.627-1.1,1.654-1.573,3.071-1.418c1.259,0.318,1.89,1.182,1.89,2.6v2.362
			c-1.89,8.506-4.452,16.539-7.679,24.1c-3.23,7.561-7.442,14.885-12.641,21.973c-0.945,1.418-2.049,2.717-3.308,3.898
			c-1.263,1.182-2.521,2.326-3.78,3.426c-3.466,3.153-7.206,4.999-11.223,5.553c-4.017,0.55-8.151,0.354-12.404-0.591
			c-7.247-1.731-12.917-4.921-17.011-9.569c-4.098-4.644-7.169-10.354-9.214-17.129c-0.79-2.518-1.34-5.08-1.654-7.679
			C118.088,182.107,118.088,179.391,118.405,176.556z M139.197,173.721v1.181c0,1.263,0.118,2.009,0.354,2.245
			s0.982,0.199,2.244-0.118c2.991-0.473,5.512-1.495,7.561-3.071c5.039-3.622,9.015-7.797,11.931-12.522
			c2.913-4.726,4.763-10.16,5.553-16.303c0.313-3.78-0.473-7.243-2.363-10.396c-1.263-2.204-2.994-2.676-5.198-1.417
			c-2.68,1.263-5.043,3.23-7.088,5.907c-4.253,5.043-7.288,10.477-9.096,16.303C141.283,161.356,139.983,167.422,139.197,173.721z"
			/>
		<path fill="#FED136" d="M240.305,177.501c-1.262,3.625-2.521,7.169-3.78,10.632c-1.262,3.467-2.521,6.933-3.78,10.396
			c-1.576,4.57-3.703,9.138-6.379,13.704c-3.625,5.829-8.665,8.188-15.122,7.088c-6.46-0.945-11.658-3.936-15.594-8.979
			c-4.884-6.771-7.405-14.018-7.561-21.736c-0.317-7.716,0.037-15.239,1.063-22.563c1.022-7.325,3.426-14.531,7.206-21.619
			c0.786-1.573,1.691-3.031,2.717-4.371c1.022-1.336,2.163-2.636,3.426-3.898c3.308-3.621,7.047-6.024,11.223-7.206
			c4.172-1.181,8.624-1.536,13.349-1.063c2.677,0.317,5.275,0.908,7.797,1.772c2.518,0.868,4.718,2.481,6.601,4.843
			c0.779-0.627,1.207-1.259,1.285-1.89c0.077-0.627,0.273-1.259,0.587-1.89c0.93-2.204,2.488-3.544,4.67-4.017
			c2.333-0.472,4.552-0.472,6.656,0c2.104,0.473,4.171,1.34,6.206,2.599c1.731,1.263,2.518,3.153,2.363,5.67
			c-1.417,7.088-2.481,14.176-3.186,21.264c-0.708,7.088-0.827,14.176-0.358,21.265c0.313,4.725,0.786,9.45,1.417,14.176
			c0.627,4.726,1.654,9.373,3.071,13.939c0.473,2.208,1.259,4.017,2.363,5.435c0.787-0.313,1.377-0.746,1.772-1.3
			c0.392-0.55,0.746-1.063,1.063-1.535c1.731-2.518,3.189-5.117,4.371-7.797c1.181-2.677,2.244-5.354,3.189-8.033
			c1.89-5.039,3.74-10.119,5.552-15.239c1.809-5.117,3.345-10.355,4.607-15.712c0.313-0.786,0.627-1.573,0.945-2.363
			c0.314-0.786,0.628-1.572,0.945-2.362c0.473-1.1,1.573-1.495,3.308-1.181c1.259,0.159,1.731,1.026,1.417,2.599
			c0,1.89-0.236,3.78-0.708,5.67c-1.735,7.088-3.625,14.177-5.67,21.265c-2.049,7.088-4.334,14.176-6.852,21.264
			c-0.631,1.576-1.299,3.153-2.008,4.726c-0.708,1.576-1.617,3.071-2.717,4.489c-2.208,2.68-4.884,3.936-8.033,3.78
			c-8.627-0.159-14.966-4.094-19.012-11.813c-2.027-3.622-3.585-7.402-4.674-11.341c-1.093-3.936-1.949-7.952-2.569-12.05
			c-0.31-1.259-0.506-2.399-0.583-3.426C240.811,179.668,240.615,178.604,240.305,177.501z M214.566,211.051
			c1.259-0.473,2.204-1.063,2.835-1.771c0.628-0.709,1.336-1.455,2.126-2.245c1.89-2.204,3.544-4.489,4.962-6.852
			c1.417-2.363,2.754-4.881,4.017-7.561c1.731-3.78,3.227-7.598,4.489-11.459c1.259-3.858,2.518-7.679,3.781-11.459
			c0.786-2.519,1.417-4.999,1.89-7.442c0.472-2.44,0.627-4.999,0.472-7.679c0-2.99-0.472-5.748-1.417-8.27
			c-0.945-2.518-2.285-4.961-4.017-7.324c-0.79-1.259-1.813-2.204-3.071-2.835c-1.263-0.945-2.444-0.945-3.544,0l-2.126,1.418
			c-2.208,1.89-4.058,4.057-5.553,6.497c-1.499,2.444-2.717,5.002-3.662,7.679c-5.515,14.021-7.405,28.433-5.67,43.237
			C210.55,200.655,212.045,206.012,214.566,211.051z"/>
		<path fill="#FED136" d="M310.489,182.935c0.787-1.89,1.418-3.817,1.89-5.788c0.473-1.968,0.864-3.977,1.182-6.025
			c1.259-5.039,2.481-10.001,3.662-14.885c1.181-4.88,2.636-9.765,4.371-14.648c0.627-1.731,1.336-3.426,2.126-5.08
			c0.786-1.654,1.572-3.345,2.362-5.08c1.89-3.149,4.567-4.489,8.033-4.017c5.984,0.631,10.474,3.861,13.467,9.687
			c1.259,2.835,2.126,5.711,2.599,8.624c0.473,2.916,0.627,5.947,0.473,9.096c0,2.048-0.082,4.057-0.236,6.025
			c-0.159,1.972-0.317,3.898-0.473,5.788c0,1.263,0.037,2.563,0.118,3.898c0.078,1.341,0.354,2.64,0.827,3.898
			c0.472,1.263,1.259,1.577,2.362,0.945c0.787-0.473,1.613-0.904,2.481-1.299c0.864-0.392,1.691-0.982,2.481-1.772
			c2.045-1.891,4.017-3.817,5.907-5.789c1.89-1.967,3.463-4.289,4.725-6.97c0.787-1.572,1.89-2.204,3.308-1.89
			c1.417,0.317,2.126,1.104,2.126,2.362c-0.318,3.153-1.104,5.907-2.363,8.27c-1.89,3.152-4.175,5.829-6.852,8.033
			c-2.68,2.208-5.67,4.017-8.978,5.435c-0.79,0.317-1.536,0.513-2.245,0.59c-0.708,0.082-1.458,0.118-2.245,0.118
			c-6.933-0.313-12.404-2.518-16.42-6.615c-4.017-4.094-6.656-8.819-7.915-14.176c-0.317-1.573-0.591-3.108-0.827-4.607
			c-0.236-1.495-0.513-2.954-0.827-4.371c-0.79,2.208-1.458,4.489-2.008,6.852c-0.554,2.363-1.145,4.726-1.772,7.088
			c-1.263,5.516-2.562,11.027-3.898,16.539c-1.34,5.516-2.403,11.104-3.19,16.775c-0.317,2.208-0.631,4.452-0.945,6.733
			c-0.318,2.285-0.631,4.53-0.945,6.733c-0.317,2.521-1.222,4.371-2.717,5.553c-1.499,1.182-3.426,1.613-5.789,1.3
			c-5.198-0.632-8.979-3.227-11.341-7.797c-1.417-2.363-2.362-5.039-2.835-8.033c-1.735-7.088-3.112-14.136-4.135-21.146
			c-1.026-7.007-1.381-14.136-1.063-21.382c0.314-4.726,0.591-9.451,0.827-14.176c0.236-4.726,0.904-9.37,2.008-13.94
			c0.786-3.308,1.85-5.471,3.189-6.498c1.336-1.022,3.74-1.455,7.207-1.299c4.725,0.317,8.897,1.576,12.522,3.78
			c2.363,1.576,3.463,3.939,3.308,7.088c-0.631,4.253-1.145,8.546-1.536,12.877c-0.395,4.334-0.908,8.705-1.536,13.112
			c-0.317,3.309-0.395,6.616-0.236,9.924C310.88,176.083,310.803,179.472,310.489,182.935z"/>
		<path fill="#FED136" d="M436.182,211.76c2.518-2.045,4.606-4.253,6.261-6.615c1.653-2.363,3.108-4.881,4.371-7.561
			c5.825-11.342,10.551-23.155,14.176-35.44c0.313-0.787,0.591-1.613,0.827-2.481c0.236-0.863,0.51-1.771,0.827-2.717
			c0.473-0.945,1.259-1.336,2.362-1.182c1.259,0.318,1.891,1.026,1.891,2.127c0,3.308-0.396,6.774-1.182,10.396
			c-1.104,4.726-2.285,9.414-3.544,14.058c-1.263,4.648-2.835,9.178-4.726,13.586c-1.263,2.994-2.48,5.87-3.662,8.624
			c-1.182,2.758-2.64,5.475-4.371,8.151c-0.79,1.262-1.617,2.403-2.48,3.426c-0.868,1.026-1.772,2.008-2.718,2.953
			c-2.993,3.149-6.607,4.094-10.839,2.835c-7.951-1.89-13.404-6.615-16.365-14.176c-2.03-5.512-3.119-10.946-3.274-16.303
			c-0.158-4.566-0.081-9.174,0.236-13.821c0.314-4.645,0.628-9.252,0.945-13.822c0.155-3.936,0.354-7.874,0.591-11.813
			c0.236-3.935,0.195-7.874-0.118-11.813c0-0.313,0-0.708,0-1.181s-0.159-0.945-0.473-1.417c-0.79,0.159-1.418,0.473-1.891,0.945
			c-0.472,0.473-1.025,0.945-1.653,1.418c-1.263,1.104-2.285,2.326-3.072,3.662c-0.79,1.34-1.576,2.717-2.362,4.135
			c-3.939,7.878-7.129,15.911-9.569,24.099c-2.444,8.192-4.293,16.62-5.552,25.281c-0.317,2.362-0.708,4.725-1.181,7.088
			c-0.473,2.362-0.868,4.726-1.182,7.088c0,0.79-0.041,1.499-0.118,2.126c-0.082,0.632-0.041,1.341,0.118,2.127
			c0.155,2.994-1.262,4.566-4.252,4.726c-2.994,0.154-5.711-0.554-8.151-2.127c-2.444-1.572-4.293-3.699-5.552-6.379
			c-1.263-2.677-2.167-5.435-2.717-8.27c-0.554-2.835-0.986-5.671-1.299-8.506c-0.945-6.615-1.458-13.23-1.536-19.847
			c-0.082-6.615,0.118-13.23,0.59-19.846c0.314-4.094,0.591-8.07,0.827-11.932c0.236-3.858,0.509-7.834,0.827-11.932
			c0.155-2.204,0.591-3.662,1.3-4.371c0.708-0.708,2.163-1.063,4.371-1.063c5.04,0,9.606,1.654,13.704,4.961
			c2.045,1.577,2.835,3.625,2.363,6.143c-1.262,6.774-2.089,13.548-2.481,20.319c-0.395,6.774-0.672,13.549-0.827,20.319
			c0,0.631,0,1.262,0,1.89c0,0.632,0.155,1.34,0.473,2.127c0.783-2.519,1.447-4.922,1.997-7.207c0.546-2.281,1.137-4.606,1.765-6.97
			c1.255-4.253,2.625-8.506,4.116-12.758c1.488-4.253,3.094-8.424,4.818-12.522c1.096-2.99,2.898-5.907,5.408-8.742
			c3.762-4.408,8.543-5.826,14.346-4.253c8.62,2.521,14.106,8.27,16.458,17.248c1.417,5.516,2.045,10.713,1.89,15.594
			c-0.317,5.042-0.554,10.082-0.708,15.121c-0.159,5.043-0.396,10.082-0.709,15.121c-0.473,5.829-0.396,11.422,0.236,16.775
			c0,0.317,0.036,0.672,0.118,1.063C435.904,210.619,436.022,211.132,436.182,211.76z"/>
		<path fill="#FED136" d="M503.279,144.187c-1.104-0.786-2.09-1.417-2.953-1.89c-0.868-0.472-1.694-1.022-2.481-1.654
			c-4.098-2.676-7.561-5.748-10.396-9.214c-2.835-3.463-4.884-7.638-6.143-12.522c-0.159-1.417-1.026-1.967-2.6-1.654
			c-6.46,0.631-11.813,2.758-16.065,6.379c-4.253,3.625-7.325,8.27-9.215,13.94c-0.473,1.104-0.668,2.208-0.591,3.308
			c0.081,1.104,0.273,2.208,0.591,3.308c0.155,0.631,0.273,1.3,0.354,2.008c0.077,0.709-0.277,1.222-1.063,1.536
			c-0.628,0.472-1.259,0.59-1.89,0.354c-0.628-0.236-1.337-0.509-2.127-0.827c-1.89-1.259-3.308-3.19-4.253-5.789
			c-0.945-2.599-1.1-5.235-0.473-7.915c3.153-13.231,11.26-21.028,24.336-23.391c1.731-0.314,3.426-0.591,5.08-0.827
			c1.653-0.236,3.345-0.432,5.079-0.59c1.573,0,2.6-0.787,3.072-2.363c1.89-7.243,4.961-13.585,9.214-19.02
			c4.253-5.435,9.451-10.197,15.594-14.294c3.463-2.363,7.007-4.449,10.633-6.261c3.621-1.809,7.561-3.031,11.813-3.662
			c12.285-1.417,22.759,2.208,31.424,10.868c4.566,4.57,5.353,9.923,2.362,16.066c-2.208,5.043-5.198,8.979-8.979,11.813
			c-6.615,5.043-13.549,8.742-20.791,11.104c-7.247,2.363-14.886,3.467-22.919,3.308c-2.68-0.155-4.293,0-4.843,0.472
			c-0.554,0.473-0.908,1.972-1.063,4.489c-0.159,2.049-0.199,4.017-0.118,5.907c0.077,1.89,0.51,3.78,1.3,5.67
			c0.786,2.208,2.362,3.78,4.725,4.726c2.836,0.79,5.59,1.181,8.27,1.181c1.891,0.159,3.817,0.236,5.789,0.236
			c1.968,0,3.976,0,6.024,0c2.677-0.155,5.039,0.473,7.088,1.89c2.046,1.417,4.017,2.994,5.907,4.726
			c1.1,0.945,1.495,1.853,1.182,2.717c-0.317,0.868-1.182,1.458-2.6,1.772c-1.263,0.318-2.403,0.554-3.426,0.709
			c-1.026,0.159-2.089,0.395-3.189,0.709c-3.152,1.104-6.065,2.521-8.742,4.252c-2.68,1.735-5.279,3.703-7.797,5.907
			c-1.735,1.417-3.389,2.916-4.961,4.489c-1.577,1.576-2.994,3.229-4.253,4.961c-3.309,4.412-5.671,9.296-7.089,14.649
			c-1.734,5.829-1.026,11.735,2.127,17.72c1.572,2.521,3.936,3.939,7.088,4.253c2.518,0.158,4.962-0.118,7.324-0.827
			c2.363-0.709,4.645-1.613,6.852-2.717c2.519-1.259,4.962-2.6,7.325-4.017c2.362-1.418,4.644-2.99,6.852-4.726
			c5.353-4.408,10.355-9.056,15.003-13.939c4.645-4.881,8.701-10.315,12.168-16.303c0.627-0.945,1.182-1.891,1.653-2.835
			c0.473-0.945,0.945-1.891,1.418-2.836c0.786-1.259,1.809-1.572,3.071-0.944c0.628,0.317,1.182,0.672,1.654,1.063
			c0.473,0.396,0.55,0.986,0.236,1.772c-0.159,0.631-0.277,1.222-0.354,1.771c-0.081,0.554-0.277,1.145-0.591,1.772
			c-4.098,8.664-8.979,16.697-14.648,24.1c-5.671,7.405-12.445,13.939-20.319,19.61c-2.049,1.417-4.176,2.68-6.379,3.78
			c-2.208,1.104-4.412,2.207-6.616,3.308c-5.67,2.521-11.341,2.916-17.011,1.182c-15.28-3.78-25.362-12.914-30.243-27.407
			c-1.89-5.826-2.244-11.419-1.063-16.775c1.181-5.354,3.662-10.396,7.442-15.121c2.045-2.518,4.212-4.763,6.497-6.734
			c2.281-1.968,4.844-3.581,7.679-4.844c0.628-0.313,1.259-0.627,1.891-0.945C501.78,144.818,502.489,144.504,503.279,144.187z
			 M507.532,109.455c13.545,0.473,25.045-3.463,34.495-11.813c3.463-2.835,5.907-6.457,7.324-10.868
			c0.945-2.835,1.101-5.589,0.473-8.27c-0.473-1.573-1.417-2.281-2.835-2.126c-2.362,0-4.884,0.554-7.561,1.654
			c-4.098,1.735-7.878,3.898-11.341,6.498c-3.467,2.599-6.774,5.475-9.924,8.624c-2.207,2.208-4.135,4.688-5.788,7.442
			C510.722,103.353,509.104,106.306,507.532,109.455z"/>
		<path fill="#FED136" d="M618.088,177.501c-1.263,3.625-2.521,7.169-3.78,10.632c-1.263,3.467-2.521,6.933-3.78,10.396
			c-1.576,4.57-3.702,9.138-6.379,13.704c-3.625,5.829-8.665,8.188-15.121,7.088c-6.461-0.945-11.659-3.936-15.594-8.979
			c-4.885-6.771-7.406-14.018-7.561-21.736c-0.317-7.716,0.036-15.239,1.063-22.563c1.022-7.325,3.426-14.531,7.206-21.619
			c0.787-1.573,1.691-3.031,2.718-4.371c1.022-1.336,2.163-2.636,3.426-3.898c3.308-3.621,7.048-6.024,11.223-7.206
			c4.172-1.181,8.624-1.536,13.35-1.063c2.676,0.317,5.275,0.908,7.797,1.772c2.518,0.868,4.718,2.481,6.601,4.843
			c0.778-0.627,1.207-1.259,1.284-1.89c0.078-0.627,0.273-1.259,0.587-1.89c0.931-2.204,2.488-3.544,4.671-4.017
			c2.333-0.472,4.552-0.472,6.655,0c2.104,0.473,4.172,1.34,6.206,2.599c1.731,1.263,2.518,3.153,2.362,5.67
			c-1.417,7.088-2.48,14.176-3.186,21.264c-0.709,7.088-0.827,14.176-0.358,21.265c0.314,4.725,0.787,9.45,1.418,14.176
			c0.628,4.726,1.654,9.373,3.071,13.939c0.473,2.208,1.259,4.017,2.363,5.435c0.786-0.313,1.377-0.746,1.771-1.3
			c0.392-0.55,0.746-1.063,1.063-1.535c1.731-2.518,3.189-5.117,4.371-7.797c1.181-2.677,2.244-5.354,3.189-8.033
			c1.89-5.039,3.739-10.119,5.553-15.239c1.809-5.117,3.344-10.355,4.606-15.712c0.314-0.786,0.628-1.573,0.945-2.363
			c0.313-0.786,0.628-1.572,0.945-2.362c0.473-1.1,1.572-1.495,3.308-1.181c1.259,0.159,1.731,1.026,1.418,2.599
			c0,1.89-0.236,3.78-0.709,5.67c-1.735,7.088-3.625,14.177-5.671,21.265c-2.049,7.088-4.334,14.176-6.852,21.264
			c-0.631,1.576-1.3,3.153-2.008,4.726c-0.709,1.576-1.617,3.071-2.718,4.489c-2.207,2.68-4.884,3.936-8.033,3.78
			c-8.627-0.159-14.966-4.094-19.012-11.813c-2.027-3.622-3.585-7.402-4.674-11.341c-1.093-3.936-1.949-7.952-2.569-12.05
			c-0.311-1.259-0.506-2.399-0.583-3.426C618.594,179.668,618.398,178.604,618.088,177.501z M592.35,211.051
			c1.259-0.473,2.204-1.063,2.835-1.771c0.628-0.709,1.337-1.455,2.127-2.245c1.89-2.204,3.544-4.489,4.961-6.852
			c1.418-2.363,2.755-4.881,4.017-7.561c1.731-3.78,3.227-7.598,4.489-11.459c1.259-3.858,2.518-7.679,3.78-11.459
			c0.786-2.519,1.418-4.999,1.891-7.442c0.473-2.44,0.627-4.999,0.473-7.679c0-2.99-0.473-5.748-1.418-8.27
			c-0.945-2.518-2.285-4.961-4.017-7.324c-0.79-1.259-1.813-2.204-3.071-2.835c-1.263-0.945-2.444-0.945-3.544,0l-2.127,1.418
			c-2.207,1.89-4.057,4.057-5.552,6.497c-1.499,2.444-2.718,5.002-3.662,7.679c-5.516,14.021-7.406,28.433-5.671,43.237
			C588.333,200.655,589.828,206.012,592.35,211.051z"/>
		<path fill="#FED136" d="M681.184,239.876c-4.726-0.159-8.979-0.945-12.759-2.363c-4.57-1.734-7.561-4.807-8.978-9.214
			c-2.677-7.72-1.968-14.886,2.126-21.501c2.045-3.463,4.29-6.693,6.733-9.687c2.44-2.99,4.999-5.907,7.679-8.742
			c1.731-1.891,2.127-3.936,1.182-6.144c-0.945-2.362-1.972-4.725-3.071-7.088c-1.104-2.362-2.285-4.726-3.544-7.088
			c-1.735-3.463-3.271-6.97-4.607-10.514c-1.34-3.544-2.403-7.207-3.189-10.987c-1.263-5.67-0.868-10.946,1.181-15.83
			c0.945-2.363,2.322-4.33,4.135-5.907c1.81-1.572,3.817-2.636,6.025-3.189c2.204-0.55,4.448-0.55,6.733,0
			c2.281,0.554,4.371,1.694,6.261,3.426c1.573,1.263,2.519,2.717,2.836,4.371c0.313,1.654,0.313,3.348,0,5.08
			c-0.945,4.412-2.681,8.823-5.198,13.231c-1.104,1.89-1.182,3.78-0.236,5.67c1.418,2.994,2.953,5.906,4.607,8.742
			c1.654,2.835,3.268,5.751,4.844,8.741c0.473,0.79,0.904,1.182,1.299,1.182c0.392,0,0.982-0.236,1.772-0.709
			c2.518-1.572,5.039-3.071,7.561-4.489c2.518-1.417,5.117-2.754,7.797-4.017c1.259-0.472,2.44-0.904,3.544-1.299
			c1.101-0.392,2.281-0.746,3.544-1.063c1.101-0.313,1.968-0.392,2.6-0.236c0.472,0.159,0.981,0.277,1.535,0.354
			c0.55,0.081,0.904,0.436,1.063,1.063c0.155,0.79-0.041,1.299-0.591,1.535c-0.554,0.236-0.985,0.514-1.3,0.827
			c-2.207,1.263-4.489,2.48-6.852,3.662s-4.647,2.563-6.852,4.135c-1.263,0.945-2.599,1.854-4.017,2.717
			c-1.418,0.868-2.758,1.772-4.017,2.718c-1.418,0.944-2.208,1.616-2.362,2.008c-0.159,0.396,0.154,1.3,0.944,2.718
			c2.518,5.829,4.331,11.499,5.435,17.011c1.418,8.033,1.022,15.594-1.182,22.682c-1.417,4.408-3.507,8.151-6.261,11.223
			c-2.758,3.072-6.579,5.158-11.459,6.262c-0.317,0.155-0.672,0.236-1.063,0.236c-0.395,0-0.749,0.077-1.063,0.236
			C682.442,239.64,681.497,239.717,681.184,239.876z M680.002,196.875c-2.521,3.152-4.725,6.342-6.615,9.568
			c-1.891,3.23-3.23,6.893-4.017,10.986c-0.79,4.095,0.155,7.952,2.835,11.577c1.731-1.104,3.227-2.835,4.489-5.197
			c1.259-2.363,2.245-5.08,2.953-8.151c0.709-3.071,1.101-6.262,1.182-9.569C680.906,202.781,680.63,199.71,680.002,196.875z"/>
		<path fill="#FED136" d="M745.212,205.853c1.259-2.203,2.481-4.289,3.662-6.261c1.182-1.968,2.322-4.054,3.426-6.261
			c6.771-12.286,12.128-24.964,16.066-38.04c0.786-2.204,1.418-4.408,1.891-6.616c0.473-2.204,1.022-4.408,1.653-6.616
			c0.473-1.731,0.945-3.344,1.418-4.843c0.473-1.495,1.1-3.031,1.89-4.607c1.26-2.362,3.149-2.99,5.671-1.89
			c0.313,0.159,0.668,0.318,1.063,0.473c0.391,0.159,0.745,0.317,1.063,0.473c3.622,1.417,6.063,4.017,7.325,7.797
			c0.786,2.363,1.417,4.725,1.89,7.088s0.864,4.807,1.182,7.324c0.473,4.098,0.945,8.27,1.417,12.523
			c0.473,4.252,1.023,8.428,1.654,12.521c0.628,0.159,1.022,0.081,1.182-0.236c0.154-0.313,0.391-0.627,0.709-0.944
			c2.203-2.204,4.134-4.449,5.788-6.734c1.654-2.281,3.345-4.685,5.08-7.206c0.313-0.786,0.745-1.454,1.299-2.008
			c0.551-0.551,1.063-1.219,1.536-2.009c0.786-1.1,1.968-1.495,3.544-1.181c2.045,0.472,2.677,1.576,1.891,3.308
			c-1.263,2.835-2.799,5.434-4.607,7.797c-1.813,2.362-3.585,4.725-5.316,7.088c-1.417,1.735-2.835,3.507-4.253,5.315
			c-1.417,1.813-2.916,3.508-4.489,5.08c-1.262,1.418-1.89,3.153-1.89,5.198c0.473,5.516,0.668,10.909,0.591,16.185
			c-0.081,5.279-0.277,10.669-0.591,16.185c-0.317,3.78-0.672,7.52-1.063,11.223c-0.395,3.699-1.063,7.361-2.008,10.986
			c-2.836,13.386-9.296,24.49-19.374,33.313c-6.302,5.671-13.549,8.584-21.737,8.742c-2.521,0.155-5.002,0.155-7.442,0
			c-2.443-0.158-4.844-0.554-7.206-1.182c-5.043-1.262-8.587-3.426-10.632-6.497c-2.049-3.071-3.308-6.814-3.78-11.223
			c-0.317-3.152,0-6.065,0.944-8.742c0.945-2.68,2.204-5.356,3.78-8.033c2.991-5.043,6.38-9.805,10.16-14.294
			s7.797-8.782,12.05-12.877c3.621-3.467,7.243-6.933,10.868-10.396c3.621-3.463,7.243-6.93,10.868-10.396
			c1.731-1.731,2.6-3.699,2.6-5.907c0-5.039,0-10.159,0-15.357s-0.159-10.314-0.473-15.357c0-0.945,0-1.85,0-2.717
			c0-0.864-0.159-1.772-0.473-2.718c-0.632,0.317-0.986,0.709-1.063,1.182c-0.081,0.473-0.276,0.867-0.591,1.182
			c-2.049,5.67-4.253,11.304-6.615,16.893c-2.363,5.594-4.648,11.223-6.852,16.894c-0.79,2.208-1.695,4.294-2.718,6.261
			c-1.026,1.972-2.089,4.058-3.189,6.262c-1.104,2.521-3.152,4.253-6.143,5.197c-4.412,1.418-8.901,1.577-13.468,0.473
			c-5.516-1.572-9.45-5.275-11.813-11.104c-2.207-5.353-3.662-10.787-4.371-16.303c-0.708-5.512-1.222-11.182-1.535-17.011
			c-0.317-11.655,0.391-23.31,2.126-34.968c0.155-1.1,0.314-2.163,0.473-3.189c0.155-1.022,0.313-2.086,0.473-3.189
			c0-2.204,1.1-3.78,3.308-4.726c6.144-2.363,12.205-2.281,18.192,0.236c2.204,0.945,3.227,2.599,3.072,4.961
			c-0.317,2.68-0.514,5.279-0.591,7.797c-0.081,2.521-0.277,5.043-0.591,7.561c0,1.104-0.041,2.167-0.118,3.189
			c-0.081,1.026-0.199,2.167-0.354,3.426c-0.158,3.466-0.276,6.933-0.354,10.396c-0.081,3.467-0.199,7.011-0.354,10.632
			c-0.158,8.665,0.709,17.406,2.6,26.226c0.154,0.632,0.272,1.182,0.354,1.654c0.078,0.473,0.196,1.026,0.354,1.654L745.212,205.853
			z M774.037,214.595l-1.418,0.945c-3.467,3.467-6.893,6.852-10.277,10.159c-3.39,3.308-6.734,6.771-10.042,10.396
			c-2.68,2.676-5.161,5.589-7.442,8.741c-2.285,3.149-4.371,6.38-6.261,9.688c-2.835,5.198-4.017,10.868-3.544,17.012
			c0.155,2.045,0.945,4.407,2.362,7.088c0.786,1.417,1.968,2.126,3.544,2.126c1.418-0.158,2.836-0.395,4.253-0.709
			c1.418-0.317,2.754-0.944,4.017-1.89c4.094-3.153,7.679-6.615,10.75-10.396c3.072-3.781,5.394-8.192,6.971-13.231
			c2.203-6.774,3.78-13.153,4.725-19.138c0.473-3.308,0.905-6.697,1.3-10.16C773.365,221.761,773.72,218.22,774.037,214.595z"/>
	</g>
</g>
</svg>
